<?xml version="1.0" encoding="UTF-8"?><svg id="Layer_1" xmlns="http://www.w3.org/2000/svg" viewBox="0 0 612 558.96"><rect x="17.94" y="255.93" width="585.11" height="92.22" fill="none"/><path d="M23.64,259.58h17.41c10.87,0,19.76,3.88,19.76,16.04s-9.04,17.02-19.46,17.02h-5.85v16.42h-11.86v-49.48ZM40.67,283.29c5.85,0,8.59-2.74,8.59-7.68s-3.12-6.69-8.89-6.69h-4.86v14.36h5.17Z" fill="#fffcf4"/><path d="M68.33,271.28h9.58l.84,6.54h.3c2.74-5.09,6.92-7.45,10.72-7.45,2.2,0,3.5.23,4.56.76l-2.2,9.96c-1.37-.3-2.2-.46-3.88-.46-2.81,0-6.23,1.82-8.21,6.84v21.58h-11.7v-37.77Z" fill="#fffcf4"/><path d="M96.22,290.13c0-12.24,8.82-19.76,17.86-19.76,10.94,0,16.27,7.9,16.27,18.17,0,2.13-.23,4.1-.46,5.17h-22.27c1.06,5.09,4.64,7.3,9.42,7.3,2.74,0,5.47-.84,8.13-2.36l3.8,7.07c-3.95,2.81-9.12,4.26-13.6,4.26-10.79,0-19.15-7.22-19.15-19.84ZM120.32,285.8c0-3.72-1.67-6.54-5.93-6.54-3.34,0-6.16,2.13-6.92,6.54h12.84Z" fill="#fffcf4"/><path d="M137.87,271.28h9.58l.84,4.71h.3c3.04-3.04,6.38-5.62,11.4-5.62s8.51,2.2,10.41,6.23c3.27-3.34,6.76-6.23,11.78-6.23,8.21,0,11.86,5.85,11.86,15.28v23.41h-11.7v-21.89c0-5.24-1.44-6.84-4.41-6.84-1.82,0-3.8,1.14-6.08,3.42v25.31h-11.78v-21.89c0-5.24-1.37-6.84-4.41-6.84-1.75,0-3.8,1.14-6.08,3.42v25.31h-11.7v-37.77Z" fill="#fffcf4"/><path d="M202.55,259.88c0-3.65,2.74-6,6.61-6s6.61,2.36,6.61,6-2.74,6.08-6.61,6.08-6.61-2.36-6.61-6.08ZM203.31,271.28h11.7v37.77h-11.7v-37.77Z" fill="#fffcf4"/><path d="M224.21,294.69v-23.41h11.78v21.89c0,5.24,1.37,6.76,4.41,6.76,2.66,0,4.26-1.06,6.31-3.88v-24.78h11.78v37.77h-9.58l-.84-5.17h-.3c-3.12,3.72-6.69,6.08-11.78,6.08-8.28,0-11.78-5.85-11.78-15.28Z" fill="#fffcf4"/><path d="M268.06,271.28h9.58l.84,4.71h.3c3.04-3.04,6.38-5.62,11.4-5.62s8.51,2.2,10.41,6.23c3.27-3.34,6.76-6.23,11.78-6.23,8.21,0,11.86,5.85,11.86,15.28v23.41h-11.71v-21.89c0-5.24-1.44-6.84-4.41-6.84-1.82,0-3.8,1.14-6.08,3.42v25.31h-11.78v-21.89c0-5.24-1.37-6.84-4.41-6.84-1.75,0-3.8,1.14-6.08,3.42v25.31h-11.7v-37.77Z" fill="#fffcf4"/><path d="M364.58,309.44c-10.41-2.28-17.25-11.4-17.25-25.31,0-16.27,9.2-25.46,22.65-25.46s22.65,9.27,22.65,25.46c0,13.15-6.08,21.97-15.58,24.85,2.28,3.42,6.69,4.64,10.79,4.64,2.13,0,4.03-.3,5.55-.76l2.05,8.44c-1.9.99-5.02,1.75-8.97,1.75-10.79,0-18.24-5.7-21.89-13.6ZM380.54,284.13c0-9.65-4.03-15.28-10.56-15.28s-10.56,5.62-10.56,15.28c0,10.26,4.1,16.19,10.56,16.19s10.56-5.93,10.56-16.19Z" fill="#fffcf4"/><path d="M400.52,294.69v-23.41h11.78v21.89c0,5.24,1.37,6.76,4.41,6.76,2.66,0,4.26-1.06,6.31-3.88v-24.78h11.78v37.77h-9.58l-.84-5.17h-.3c-3.12,3.72-6.69,6.08-11.78,6.08-8.28,0-11.78-5.85-11.78-15.28Z" fill="#fffcf4"/><path d="M442.7,298.49c0-7.98,6.16-12.31,21.05-13.83-.3-3.12-1.9-4.94-5.78-4.94-3.04,0-6.08,1.06-9.88,3.19l-4.1-7.6c4.94-3.04,10.34-4.94,16.26-4.94,9.73,0,15.2,5.4,15.2,17.25v21.43h-9.58l-.84-3.8h-.3c-3.12,2.81-6.54,4.71-10.79,4.71-6.92,0-11.25-5.17-11.25-11.48ZM463.76,297.89v-6c-7.52.99-9.8,3.04-9.8,5.7,0,2.2,1.44,3.27,4.03,3.27,2.36,0,3.95-1.14,5.78-2.96Z" fill="#fffcf4"/><path d="M484.66,296.82v-40.89h11.71v41.35c0,2.43,1.22,3.19,2.13,3.19.46,0,.76,0,1.37-.15l1.37,8.66c-1.29.53-3.27.99-5.85.99-8.06,0-10.72-5.24-10.72-13.15Z" fill="#fffcf4"/><path d="M505.94,259.88c0-3.65,2.74-6,6.61-6s6.61,2.36,6.61,6-2.74,6.08-6.61,6.08-6.61-2.36-6.61-6.08ZM506.7,271.28h11.71v37.77h-11.71v-37.77Z" fill="#fffcf4"/><path d="M529.5,295.07v-14.59h-5.09v-8.82l5.78-.38,1.37-11.55h9.73v11.55h8.89v9.2h-8.89v14.44c0,4.26,1.98,5.85,4.79,5.85,1.22,0,2.51-.15,3.5-.53l1.82,8.21c-1.98.76-4.86,1.52-8.59,1.52-9.42,0-13.3-6-13.3-14.9Z" fill="#fffcf4"/><path d="M556.63,322.74l2.05-8.66c1.22.3,1.75.38,2.51.38,3.65,0,5.47-1.9,6.38-4.64l.53-1.82-14.52-36.71h11.78l5.17,15.66c1.06,3.5,1.9,6.99,2.89,10.72h.3c.84-3.57,1.6-7.14,2.58-10.72l4.33-15.66h11.25l-13,37.85c-3.72,9.73-7.75,14.52-16.8,14.52-2.43,0-3.95-.3-5.47-.91Z" fill="#fffcf4"/><ellipse cx="300.22" cy="263.18" rx="203.65" ry="183.74" fill="none"/><path d="M126.37,163.7l2.49-3.45-19.08-16.52-3.21,3.19-.89-.77,4.66-5.39,26.57,7.67-11.59-24.99,4.96-5.74.89.77-2.85,3.81c2.83,2.51,5.75,5.04,8.67,7.56l1.71,1.48c2.92,2.53,5.81,5.03,8.73,7.49l3.36-3.37.89.77-7.83,9.05-.89-.77,2.76-3.71c-2.86-2.54-5.75-5.04-8.48-7.4l-9.4-8.26,11.65,25.17-.85.99-26.85-7.67,7.33,6.03,10.8,9.34,3.15-3.06.89.77-6.7,7.74-.89-.77Z" fill="#fff"/><path d="M137.01,111.99l9.68-7.8c5.29-4.27,9.92-4.6,12.9-.91,2.32,2.88,1.93,6.92-1.38,10.61,2.23-1.09,3.91-.78,6.36.7l6.93,4.07,3.45-2.4.74.92c-.4.54-1.19,1.34-2.24,2.19-1.96,1.58-3,1.61-4.24.83l-6.49-4.05c-2.84-1.81-4.47-1.84-7.66.73l-2.86,2.31c2.74,3.4,5.06,6.28,7.4,9.03l3.91-2.72.74.92-9.46,7.63-.74-.92,3.49-3.24c-2.36-3-4.76-5.98-7.18-8.99l-1.42-1.77c-2.42-3.01-4.82-5.98-7.26-8.93l-3.91,2.72-.74-.92ZM143.62,108.39c2.35,3.07,4.83,6.14,7.78,9.8l3.99-3.21c3.81-3.07,4.53-7.21,2.21-10.09-2.35-2.91-5.75-3.13-10.14.4l-3.84,3.1Z" fill="#fff"/><path d="M162.84,92.18l10.25-6.52.63.99-3.83,2.83c1.95,3.24,4.02,6.5,6.09,9.76l1.22,1.91c2.07,3.26,4.12,6.49,6.25,9.66l4.19-2.26.63.99-10.25,6.52-.63-.99,3.83-2.83c-2.01-3.25-4.06-6.48-6.13-9.74l-1.22-1.91c-2.07-3.26-4.12-6.49-6.21-9.69l-4.19,2.26-.63-.99Z" fill="#fff"/><path d="M177.74,82.6l10.31-5.1.52,1.05-4.19,2.45,13,9.27.58-15.94-4.47,1.79-.52-1.05,9.43-4.66.52,1.05-3.46,2.13-.77,17.67c2.1,4.25,3.05,6.17,4.4,8.69l4.82-2.01.52,1.05-11.77,5.82-.52-1.05,4.53-2.61c-1.28-2.79-2.32-4.9-4.2-8.7l-14.65-10.19-3.57,1.39-.52-1.05Z" fill="#fff"/><path d="M225.77,62.25l10.48-3.43.37,1.12-3.82,1.65,4.95,15.13c2.4,7.34-.12,12.06-6.71,14.22-6.15,2.01-11.18.26-13.62-7.21l-1.45-4.43c-1.2-3.67-2.43-7.42-3.71-11.03l-4.13,1-.37-1.12,11.28-3.69.37,1.12-4.62,1.91c1.14,3.65,2.35,7.32,3.56,11.03l1.24,3.79c2.27,6.95,6.27,8.38,11.13,6.78,5.88-1.93,7.58-5.57,5.18-12.92l-4.6-14.05-5.17,1.25-.37-1.12Z" fill="#fff"/><path d="M262.47,53.89l11.99-1.98.19,1.16-4.63,1.11c.52,3.75,1.16,7.56,1.79,11.37l.37,2.24c.63,3.81,1.25,7.58,1.97,11.34l4.74-.44.19,1.16-11.99,1.98-.19-1.16,4.63-1.11c-.58-3.78-1.23-7.72-2.02-12.48l-17.09,2.83c.85,5.14,1.47,8.87,2.15,12.46l4.74-.44.19,1.16-11.99,1.98-.19-1.16,4.63-1.11c-.58-3.78-1.2-7.55-1.83-11.36l-.37-2.24c-.63-3.81-1.25-7.58-1.92-11.35l-4.74.44-.19-1.16,11.99-1.98.19,1.16-4.63,1.11c.52,3.74,1.16,7.56,1.76,11.2l17.09-2.83c-.66-4.02-1.26-7.63-1.9-11.18l-4.74.44-.19-1.16Z" fill="#fff"/><path d="M294.5,65.04c.23-8.65,6.81-14.57,15.75-14.33,3.26.09,5.94.75,8.83,2.38l.03,5.93-1.82-.05-.7-5.15c-1.92-1.14-3.73-1.65-6.05-1.72-7.54-.2-12.93,4.74-13.15,13.01-.22,8.4,4.91,13.45,12.17,13.64,2.37.06,4.62-.3,6.79-1.29l.98-5.18,1.81.05-.34,5.96c-3.11,1.51-6.01,1.98-9.32,1.9-9.21-.25-15.2-6.46-14.97-15.15Z" fill="#fff"/><path d="M327.07,52.27l22.23,3.38-.61,6.83-1.7-.26-.05-5.53-12.75-1.94c-.67,3.76-1.26,7.67-1.88,11.74l8.24,1.25,1.11-3.91,1.38.21-1.41,9.3-1.38-.21.1-4.06-8.24-1.25c-.72,4.77-1.3,8.55-1.75,12.18l13.53,2.05,1.65-5.27,1.7.26-1.4,6.71-23.01-3.49.18-1.16,4.75.38c.62-3.77,1.19-7.55,1.77-11.37l.34-2.24c.58-3.82,1.15-7.6,1.68-11.38l-4.64-1.04.18-1.16Z" fill="#fff"/><path d="M357.42,57.29l11.95,3.41c6.53,1.87,9.48,5.46,8.17,10.02-1.01,3.55-4.54,5.56-9.46,4.99,2.18,1.19,2.89,2.75,3.1,5.6l.67,8.01,3.95,1.43-.32,1.13c-.67-.02-1.78-.2-3.08-.57-2.42-.69-3.05-1.53-3.12-2.99l-.43-7.64c-.15-3.36-1.07-4.72-5.01-5.84l-3.54-1.01c-1.2,4.2-2.21,7.75-3.12,11.25l4.47,1.63-.32,1.13-11.68-3.34.32-1.13,4.66.98c1.09-3.66,2.14-7.34,3.21-11.05l.62-2.18c1.06-3.72,2.11-7.39,3.12-11.08l-4.47-1.63.32-1.13ZM364.16,60.61c-1.15,3.69-2.24,7.49-3.53,12.01l4.92,1.41c4.7,1.34,8.5-.45,9.52-4.01,1.03-3.59-.76-6.51-6.17-8.05l-4.74-1.36Z" fill="#fff"/><path d="M386.48,65.92l23.09,9.82-2.39,6.7-1.58-.67,1.42-5.6-8.31-3.53c-1.54,3.5-3.05,7.05-4.59,10.69l-.89,2.09c-1.51,3.56-3.01,7.07-4.46,10.61l4.67,2.35-.46,1.08-12.04-5.12.46-1.08,4.93,1.73c1.54-3.5,3.03-7.02,4.55-10.57l.89-2.09c1.53-3.59,3.06-7.19,4.51-10.72l-8.31-3.53-3.05,4.91-1.58-.67,3.16-6.37Z" fill="#fff"/><path d="M414.84,78.68l10.63,5.88-.57,1.03-4.32-2c-1.91,3.26-3.78,6.65-5.65,10.03l-1.1,1.98c-1.87,3.38-3.72,6.73-5.48,10.12l3.99,2.59-.57,1.03-10.63-5.88.57-1.03,4.32,2c1.89-3.32,3.74-6.67,5.61-10.05l1.1-1.98c1.87-3.38,3.72-6.73,5.52-10.09l-3.99-2.59.57-1.03Z" fill="#fff"/><path d="M431.64,88.09l18.49,12.87-3.57,5.86-1.41-.98,2.39-4.99-10.62-7.39c-2.26,3.08-4.51,6.32-6.86,9.7l6.95,4.84,2.72-3.02,1.15.8-5.47,7.86-1.15-.8,1.94-3.77-6.92-4.81c-2.74,3.93-4.87,7-6.88,10.05l3.93,3.15-.67.97-10.2-7.1.67-.97,4.09,2.44c2.22-3.11,4.4-6.25,6.61-9.42l1.29-1.86c2.21-3.17,4.39-6.31,6.53-9.47l-3.71-2.99.67-.96Z" fill="#fff"/><path d="M454.83,104.96l9.2,7.94-.77.89-3.81-2.85c-2.54,2.8-5.06,5.73-7.59,8.65l-1.48,1.72c-2.52,2.93-5.02,5.82-7.45,8.77l3.38,3.36-.77.89-9.2-7.94.77-.89,3.81,2.85c2.53-2.86,5.03-5.76,7.55-8.68l1.48-1.72c2.52-2.93,5.02-5.82,7.48-8.74l-3.38-3.36.77-.89Z" fill="#fff"/><path d="M469.48,117.73l15.28,16.49-4.74,4.96-1.17-1.26,3.4-4.36-8.76-9.46c-2.87,2.53-5.76,5.21-8.78,8.01l5.66,6.11,3.31-2.36.95,1.02-6.9,6.39-.95-1.02,2.61-3.11-5.66-6.11c-3.54,3.28-6.35,5.88-8.96,8.43l9.3,10.04,4.57-3.09,1.17,1.26-5.27,4.38-15.82-17.07.86-.8,3.47,3.26c2.83-2.56,5.64-5.16,8.47-7.78l1.66-1.54c2.83-2.62,5.64-5.22,8.41-7.85l-2.98-3.71.86-.8Z" fill="#fff"/><path d="M490.54,141.1l7.03,10.53c5.22,7.82,4.26,15.46-3.35,20.54-7.26,4.85-15.1,2.81-20.52-5.32l-6.69-10.03.98-.65,2.92,3.76c3.2-2.08,6.49-4.28,10.4-6.89l.84-.56c3.42-2.29,6.64-4.43,9.79-6.59l-2.36-4.14.98-.65ZM472.22,162.23l2.33,3.48c4.96,7.43,11.5,8.44,18.06,4.06,6.95-4.64,8.18-10.89,3.55-17.82l-2.64-3.95c-3.23,2.05-6.51,4.24-10.01,6.57l-.84.56c-3.98,2.66-7.3,4.88-10.46,7.1Z" fill="#fff"/><ellipse cx="300.22" cy="292.71" rx="203.65" ry="183.74" fill="none"/><path d="M127.26,391.41l6.7,7.75-.89.77-3.15-3.06-10.8,9.34-7.33,6.03,26.85-7.67.85.99-11.65,25.17,9.4-8.26c2.73-2.36,5.62-4.87,8.48-7.4l-2.76-3.71.89-.77,7.83,9.05-.89.77-3.36-3.37c-2.92,2.47-5.81,4.97-8.73,7.5l-1.71,1.48c-2.92,2.53-5.84,5.06-8.67,7.57l2.85,3.81-.89.77-4.96-5.74,11.59-24.99-26.57,7.67-4.66-5.39.89-.77,3.21,3.19,19.08-16.52-2.49-3.45.89-.77Z" fill="#fff"/><path d="M137.75,442.99l3.91,2.72c2.43-2.95,4.83-5.92,7.26-8.93l1.42-1.77c2.42-3.01,4.82-5.98,7.18-8.99l-3.49-3.24.74-.92,9.46,7.63-.74.92-3.91-2.72c-2.34,2.75-4.66,5.63-7.4,9.03l2.86,2.31c3.19,2.57,4.83,2.54,7.66.73l6.49-4.05c1.23-.79,2.28-.75,4.24.83,1.05.85,1.84,1.65,2.24,2.19l-.74.92-3.45-2.4-6.93,4.07c-2.45,1.48-4.13,1.79-6.36.7,3.3,3.69,3.7,7.73,1.38,10.61-2.98,3.69-7.61,3.36-12.9-.91l-9.68-7.8.74-.92ZM147.46,450.6c4.38,3.54,7.79,3.32,10.14.41,2.32-2.88,1.59-7.02-2.21-10.09l-3.99-3.21c-2.95,3.66-5.43,6.74-7.78,9.8l3.84,3.1Z" fill="#fff"/><path d="M163.47,462.71l4.19,2.26c2.09-3.2,4.14-6.43,6.21-9.69l1.22-1.91c2.07-3.26,4.12-6.49,6.13-9.74l-3.83-2.83.63-.99,10.25,6.52-.63.99-4.19-2.26c-2.13,3.18-4.18,6.4-6.25,9.66l-1.22,1.91c-2.07,3.26-4.14,6.52-6.09,9.76l3.83,2.83-.63.99-10.25-6.52.63-.99Z" fill="#fff"/><path d="M178.26,472.23l3.57,1.39,14.65-10.19c1.88-3.8,2.92-5.91,4.2-8.7l-4.53-2.61.52-1.05,11.77,5.82-.52,1.05-4.82-2.01c-1.35,2.52-2.3,4.44-4.4,8.69l.77,17.67,3.46,2.13-.52,1.05-9.43-4.66.52-1.05,4.47,1.79-.58-15.94-13,9.27,4.19,2.45-.52,1.05-10.31-5.1.52-1.05Z" fill="#fff"/><path d="M226.14,492.52l5.17,1.25,4.6-14.05c2.4-7.34.71-10.99-5.18-12.92-4.87-1.59-8.86-.16-11.13,6.78l-1.24,3.79c-1.21,3.71-2.42,7.38-3.56,11.03l4.62,1.91-.37,1.12-11.28-3.69.37-1.12,4.13,1c1.28-3.6,2.5-7.36,3.71-11.03l1.45-4.43c2.44-7.46,7.47-9.22,13.62-7.21,6.59,2.16,9.11,6.87,6.71,14.22l-4.95,15.13,3.82,1.65-.37,1.12-10.48-3.43.37-1.12Z" fill="#fff"/><path d="M262.66,500.84l4.74.44c.64-3.56,1.23-7.16,1.9-11.18l-17.09-2.83c-.6,3.65-1.23,7.46-1.76,11.21l4.63,1.11-.19,1.16-11.99-1.98.19-1.16,4.74.44c.67-3.76,1.29-7.53,1.92-11.35l.37-2.24c.63-3.81,1.25-7.58,1.83-11.36l-4.63-1.11.19-1.16,11.99,1.98-.19,1.16-4.74-.44c-.69,3.59-1.3,7.32-2.15,12.46l17.09,2.83c.79-4.77,1.44-8.7,2.02-12.48l-4.63-1.11.19-1.16,11.99,1.98-.19,1.16-4.74-.44c-.72,3.76-1.34,7.53-1.97,11.34l-.37,2.24c-.63,3.81-1.26,7.62-1.79,11.37l4.63,1.11-.19,1.16-11.99-1.98.19-1.16Z" fill="#fff"/><path d="M309.47,475.7c3.3-.09,6.2.38,9.32,1.9l.34,5.96-1.81.05-.98-5.18c-2.17-.99-4.41-1.35-6.79-1.29-7.26.19-12.39,5.25-12.17,13.64.22,8.27,5.61,13.21,13.15,13.01,2.33-.06,4.13-.57,6.05-1.72l.7-5.15,1.82-.05-.03,5.93c-2.89,1.63-5.57,2.29-8.83,2.38-8.94.24-15.52-5.68-15.75-14.33-.23-8.69,5.75-14.9,14.97-15.15Z" fill="#fff"/><path d="M326.89,502.45l4.64-1.04c-.53-3.79-1.1-7.56-1.68-11.38l-.34-2.24c-.58-3.82-1.15-7.6-1.77-11.37l-4.75.38-.18-1.16,23.01-3.49,1.4,6.71-1.7.26-1.65-5.27-13.53,2.05c.46,3.63,1.03,7.4,1.75,12.18l8.24-1.25-.1-4.06,1.38-.21,1.41,9.3-1.38.21-1.11-3.91-8.24,1.25c.62,4.07,1.21,7.97,1.88,11.74l12.75-1.94.05-5.53,1.7-.26.61,6.83-22.23,3.38-.18-1.16Z" fill="#fff"/><path d="M357.09,497.47l4.47-1.63c-1-3.69-2.05-7.36-3.12-11.08l-.62-2.18c-1.06-3.72-2.11-7.39-3.21-11.05l-4.66.98-.32-1.13,11.68-3.34.32,1.13-4.47,1.63c.9,3.5,1.92,7.05,3.12,11.25l3.54-1.01c3.94-1.12,4.86-2.48,5.01-5.84l.43-7.64c.07-1.46.7-2.3,3.12-2.99,1.3-.37,2.41-.56,3.08-.57l.32,1.13-3.95,1.43-.67,8.01c-.2,2.85-.92,4.41-3.1,5.6,4.92-.58,8.44,1.43,9.46,4.99,1.3,4.56-1.64,8.16-8.17,10.02l-11.95,3.41-.32-1.13ZM368.91,493.92c5.42-1.55,7.2-4.46,6.17-8.05-1.02-3.55-4.82-5.35-9.52-4.01l-4.92,1.41c1.29,4.52,2.38,8.32,3.53,12.01l4.74-1.36Z" fill="#fff"/><path d="M383.32,483.6l1.58-.67,3.05,4.91,8.31-3.53c-1.45-3.54-2.98-7.13-4.51-10.72l-.89-2.09c-1.51-3.56-3.01-7.07-4.55-10.57l-4.93,1.73-.46-1.08,12.04-5.12.46,1.08-4.67,2.35c1.45,3.54,2.95,7.05,4.46,10.61l.89,2.09c1.54,3.63,3.06,7.19,4.59,10.69l8.31-3.54-1.42-5.6,1.58-.67,2.39,6.7-23.09,9.82-3.16-6.37Z" fill="#fff"/><path d="M414.27,476.18l3.99-2.59c-1.81-3.37-3.66-6.71-5.52-10.09l-1.1-1.99c-1.87-3.38-3.72-6.73-5.61-10.05l-4.32,2-.57-1.03,10.63-5.88.57,1.03-3.99,2.59c1.77,3.39,3.62,6.73,5.48,10.12l1.1,1.98c1.87,3.38,3.74,6.76,5.65,10.03l4.32-2,.57,1.03-10.63,5.88-.57-1.03Z" fill="#fff"/><path d="M430.97,466.84l3.71-2.99c-2.14-3.16-4.33-6.3-6.53-9.47l-1.29-1.86c-2.21-3.17-4.39-6.31-6.61-9.42l-4.09,2.44-.67-.96,10.2-7.1.67.97-3.93,3.15c2.01,3.05,4.14,6.12,6.88,10.05l6.92-4.81-1.94-3.77,1.15-.8,5.47,7.86-1.15.8-2.72-3.02-6.95,4.84c2.35,3.38,4.61,6.62,6.86,9.7l10.62-7.39-2.39-4.99,1.41-.98,3.57,5.86-18.49,12.87-.67-.96Z" fill="#fff"/><path d="M454.07,450.04l3.38-3.36c-2.46-2.92-4.96-5.82-7.48-8.74l-1.48-1.72c-2.52-2.93-5.02-5.82-7.55-8.68l-3.81,2.85-.77-.89,9.2-7.94.77.89-3.38,3.36c2.43,2.95,4.92,5.85,7.45,8.77l1.48,1.72c2.52,2.93,5.05,5.85,7.59,8.65l3.81-2.85.77.89-9.2,7.94-.77-.89Z" fill="#fff"/><path d="M468.62,437.36l2.98-3.71c-2.77-2.63-5.58-5.23-8.41-7.85l-1.66-1.54c-2.83-2.62-5.64-5.22-8.47-7.79l-3.47,3.26-.86-.8,15.82-17.07,5.27,4.38-1.17,1.26-4.57-3.09-9.3,10.04c2.62,2.55,5.42,5.15,8.96,8.43l5.66-6.11-2.61-3.12.95-1.02,6.9,6.39-.95,1.02-3.31-2.36-5.66,6.11c3.02,2.8,5.92,5.48,8.78,8.01l8.76-9.46-3.4-4.36,1.17-1.26,4.74,4.96-15.28,16.49-.86-.8Z" fill="#fff"/><path d="M489.56,414.14l2.36-4.14c-3.15-2.16-6.37-4.31-9.79-6.59l-.84-.56c-3.91-2.61-7.2-4.81-10.4-6.89l-2.92,3.76-.98-.65,6.69-10.03c5.43-8.13,13.26-10.17,20.52-5.32,7.61,5.09,8.57,12.72,3.35,20.54l-7.03,10.53-.98-.65ZM482.68,400.76l.84.56c3.49,2.33,6.78,4.53,10.01,6.57l2.64-3.95c4.63-6.93,3.4-13.18-3.55-17.82-6.57-4.39-13.1-3.38-18.06,4.06l-2.33,3.48c3.16,2.22,6.48,4.44,10.46,7.1Z" fill="#fff"/><path d="M208.2,41.02c105.15-38.16,224.37-10.42,293.67,78.58,20.84,26.76,37.77,60.25,44.27,93.61-2.73-.3-7.29.99-9.3-1.06-1.68-1.71-6.93-19.76-8.71-23.99-29.97-71.12-96.12-124.75-171.47-141.36C232.49,19.44,104.33,91.11,65.96,212.14c-2.27,2.72-7.46.02-10.38-.02-.88-.99,6.74-22.27,7.91-25.33,11.95-31.4,31.92-61.98,55.32-85.83-4.58.78-8.99-1.57-8.71-6.53l7.64,1.61,1.07,4.92c16.63-16.95,36.24-32.21,57.04-43.78,8.71-4.84,25.93-10.84,32.35-16.16l-4.4-1.82v-5.06s2.79-1.81,2.79-1.81l.52,4.33,4.35-1.08c.73,2.77-1.49,3.98-3.26,5.45Z" fill="#f8f6ef"/><path d="M102.46,439.91c-.21-.29.18-2.2-.6-3.17-18.44-22.93-33.57-49.08-41.91-77.48l10.17-.05c51.65,126.9,196.14,185.32,323.37,133.52,58.56-23.84,109.08-71.28,133.2-130.02l10.73.91c-28.3,81.86-103.4,144.58-188.4,160.95-91.41,17.61-182.18-12.43-242.7-82.56-1.37-1.59-3.74-1.92-3.87-2.1v1.62c-.87.82-1.56,1.73-2.18,2.74.89.05,1.8-.04,2.7,0,3.11,2.97-4.6,6.67-5.97,5.45-.74-2.73,2.27-2.48,2.99-3.55.5-.74.13-1.67.27-1.89-.72-.04-1.46.06-2.18,0v-4.35s4.36,0,4.36,0Z" fill="#f8f6ef"/><path d="M583.2,219.75l-155.89,1.09.66-3.36,7.52-2.09,118.86.09c2.72-.31,1.83-3.85,5.41-4.46s.28,3.1-.54,4.36h10.9c-5.06-10.76-18.75-16.23-19.66-28.82-.66-9.21,2.97-11.24-2.33-20.57-7.97-14.02-30.05-18.39-25.73-39.18,1.08-5.21,6.81-9.36,4.73-16.08-3.18-10.26-21.78-12.94-29.95-19.13-4.71-3.56-8.57-9.5-13.27-12.89-4.83-3.49-12.34-5.02-16.31-8.76-3.77-3.55-4.56-10.87-7.58-13.13-4.35-3.26-12.86-1.39-17.83-5.06-3.07-2.27-3.89-6.54-6.14-9.12-8.97-10.27-28.6,1.08-39.09-16.51-2.65-4.45-3.29-11.52-8.88-14.01-18.11-8.07-38.6,15.49-57.45,7.3-5.3-2.3-9.01-9.15-14.03-9.95-16.05-2.55-24.57,8.19-35.94,7.68-8.68-.39-17.37-9.99-27.12-8.74-7.15.91-11.97,9.41-20.01,10.57-5.4.78-8.94-1.94-13.9-2.03-19.16-.36-23.91,36.88-47.73,28.19-7-2.55-9.07-9.71-17.59-8.45-17.19,2.55-14.69,49.2-35.25,52.07-4.61.64-10.54-2.85-15.04,1.22-6.05,5.47,3.48,18.86-10.03,23.76-7.21,2.61-14.36-.94-19.29,6.87-7.77,12.31,5.97,34.4-9.31,40.82-6.77,2.85-15.69-1.12-17.21,7.9-2.05,12.14,14.83,29.31-.55,38.64-3,1.82-9.82,2.94-11.4,4.41s-1.99,6.94-3.54,7.93c-1.19.76-3.38.11-4.15.72-.55.44-.28,3.01-1.74,4.24-2.92,2.46-7.29,1.41-12.12,7.51-12.35,15.57-8.65,36.91-8.11,55.02.49,16.32-1.66,45.52,11.43,57.24,2.72,2.44,7.85,3.22,7.05,7.65-10.58.12-16.27-6.7-19.3-16.11-5.98-18.58-7.94-72.83-2.78-91.52,2.62-9.48,7.36-17.24,15.89-22.25,1.52-.89,5.45-1.48,5.98-2.21s.7-4.72,1.53-6.64c4.72-10.98,16.51-5.6,19.67-13.03,4.77-11.21-10.51-27.16-2.47-38.43,4.96-6.95,16.28-1.62,20.26-9.17,4.64-8.82-3.9-24.98,3.25-35.98s16.78-5.07,22.91-8.7c6.94-4.11.99-15.57,5.91-21.34,9.18-10.79,20.55-2.53,30.02-14.67s9.05-33.48,22.17-41.05c15.07-8.69,17.79,9.08,33.16,5.89,12.5-2.6,18.69-28.69,36.21-29.27,4.21-.14,6.53,1.79,9.91,2.19,13.71,1.63,17.26-15.05,34.23-9.16,9.66,3.35,13.78,11.33,24.89,8.49,11.7-2.99,16.02-10.08,31.17-7.87,6.7.98,9.49,6.53,14.75,9.23,14.57,7.47,31.79-7.66,47.53-8.26,16.89-.63,15.75,8.52,22.92,18.47,9.02,12.52,27.16,3.95,37.02,13.12,2.98,2.77,3.13,7.93,7.14,10.3,4.56,2.69,11.33,1.23,16.23,4.48,4.45,2.95,4.9,9.52,8.7,13.09,4.02,3.78,12.17,5.66,16.95,9.21,5.76,4.28,9.81,12.91,14.76,16.85,7.64,6.08,21.72,4.85,28.8,15.89,6.42,10.02-1.16,14.05-2.44,22.57-2.51,16.68,26.8,25.47,29.1,42.32.83,6.07-1.03,12.68.93,18.68,1.7,5.18,27.53,27.46,23.15,31.89Z" fill="#f8f6ef"/><path d="M55.04,349.45l1.63,2.71c-1.18,2.78-6.58,2.19-7.44,2.92-.31.27-1.53,5.84-2.57,7.79-3.32,6.27-12.83,11.22-3.45,18.01,6.35,4.6,16.93,4.31,18.66,14.04,1.13,6.38-1.02,8.8,3.53,15,6.05,8.24,22.6,13.09,26.02,19.76,4.21,8.22-3.08,15.42.07,20.64,2.79,4.62,12.13,4.06,16.34,7.64,5.3,4.51,5.02,15.19,10.41,19.02,7.03,4.99,19.86.07,20.24,12.54.19,6.25-5.88,13.75.48,19.06,11.68,9.73,26.27-4.89,39.04-1.97,6.06,1.39,8.22,9.91,13.86,12.3,8.69,3.68,15.91-.73,24.46.62,6.38,1.01,8.89,7.4,13.38,8.42,7.41,1.67,17.82-3.33,21.87,5.38,1.56,3.36,1.39,13.35,4.2,14.32,15.44,3.15,20.95-18.2,37.38-9.03,8.69,4.85,4.71,17.08,21.15,8.98,8.72-4.29,9.06-12.91,20.91-11.8,3.36.31,6.34,2.61,9.55,2.03,7.83-1.43,15.96-18.54,26.95-10.16,3.56,2.72,3.52,8.47,10.09,6.83,7.41-1.85,11.8-19.34,22.64-23.18,6.22-2.2,9.05-.33,14.72-.48,14.42-.36,16.01-22.1,32.43-19.44,7.94,1.28,10.46,10.33,17.63.76,5.83-7.77,6.26-25.28,12.66-30.95,5.05-4.47,25.77,5.2,32.5-3.45,7.4-9.51-7.21-24.31,4.46-36.96,4.08-4.43,12.36-6.4,12.04-13.57l-7.62,1.08-.05-3.66,5.91-1.73,2.84,3.21c.21-7.45-.51-16.01,5.43-21.28,2.49-2.22,6.45-2.98,8.13-6.04,4.66-8.48-3.56-24.13,13.32-24.92,3.24-.15,6.19,1.5,9.68,1.11s6.86-3.79,11.41-2.26c-.83,14.28-15.19,4.56-21.77,9.28s-.37,15.82-7.06,23.46c-2.16,2.47-6.93,4.11-8.57,6.79-3.5,5.7-1.53,15.69-4.89,22.25-3.57,6.97-13.45,9.79-15.83,17.95-3.02,10.33,8.11,26.34-5.78,33.46-7.69,3.94-26.81-2.34-30.41.02-7.19,4.71-6.33,29.11-18.01,36.57-6.87,4.38-10.13-1.81-15.84-2.62-13.39-1.91-15.44,14.38-25.65,18.91-5.65,2.51-10.61-.04-16.69.76-14.09,1.86-15.63,20.88-27.84,23.45-9.69,2.04-8.5-9.77-17.95-8.28-4.67.74-11.29,9.91-16.94,11.46-6.85,1.87-10.45-2.52-15.58-1.48-3.43.7-11.5,9.75-16.42,11.99-20.23,9.2-17.88-12.77-30.73-13.35-9.17-.41-16.4,15.11-29.13,12.96-10.51-1.78-5.74-15.51-10.27-18.42s-11.14.51-15.88-.11c-6.06-.8-8.27-5.74-12.95-7.85-9.25-4.17-20.77,3.46-31.44-4.54-3.76-2.82-5.52-8.89-10.64-10.06-10.89-2.49-23.5,10.29-37.33,1.35-11.07-7.16-2.93-16.25-4.57-26.49-8.58-3.62-18.26-1.9-22.94-11.4-1.59-3.22-4.04-14.34-5.49-15.76-2.31-2.25-15.02-1.88-20.09-7.17-7.54-7.86,4.91-14.55-1.44-22.79-4.48-5.81-19.96-10.05-25.6-19.38-3.52-5.81-1.77-12.05-3-17.71-1.72-7.98-24.25-6.84-21.34-21.76,1.26-6.46,12.34-11.84,7.47-19.95l-6.6-.48c-.68-1.3,2.27-4.35,2.72-4.35h19.62Z" fill="#f8f6ef"/><path d="M462.19,354.91c.55,3.86-2.38,5.86-5.93,5.51l-337.45-4.42c20,58.64,88.32,93.24,146.76,100.12,5.83.69,18-2.52,17.84,5.58-37.9-.97-76.65-13.51-108.49-33.76-25.38-16.15-52.33-41.72-59.49-71.85-13.44-2.44-27.27-.13-40.77-1.2-8.24-.65-8.41-3.84-.06-4.4,31.21-2.1,63.73.87,94.84,1.19,84.04.86,167.92,1.44,251.82,3.27,13.62.3,27.31-.32,40.92-.04Z" fill="#f8f6ef"/><path d="M438.21,138.01c-1.91.19-3.57.1-5.39-.59-4.2-1.58-16.78-12.13-22.61-15.53-103.24-60.27-253.57-23.76-297.38,92.42-.85,1.73-2.5.32-2.71-.59-1.27-5.37,12.68-31.19,16.31-37.03,59.89-96.29,204.1-116.94,295.78-54.81,2.1,1.42,15.03,10.89,15.48,11.77.71,1.4.63,2.86.53,4.36Z" fill="#f8f6ef"/><path d="M44.68,221.94l1.82-3.08c43.07-2.5,86.39-.88,129.58-1.23,2.84-.02,5.51-1.17,8.62-1.19,44.89-.29,89.8.32,134.68.06,2.1,1.87-5.5,5.44-7.08,5.44H44.68Z" fill="#f8f6ef"/><path d="M303.04,98.79c.29,1.47-.39,2.64-1.82,3.08-3.89,1.19-13.24.76-18.05,1.57-16.86,2.83-34.83,8.2-49.54,16.96-5.47,3.26-13.2,7.7-14.52,14.35,2.58,2.32,25.95-10.7,30.54-12.51,23.83-9.41,50.34-11.66,75.74-9.28,4.04.38,19.34,1.89,21.67,3.4,1.31.85,2.12,1.38,1.76,3.13-32.49-2.53-64.41-4.75-95.68,6.25-8.19,2.88-26.82,14.12-33.51,13.47-4.67-.46-4.65-3.69-3.32-7.79,2.65-8.12,22.52-18.64,30.39-21.93,17.03-7.13,38.06-12.02,56.34-10.69Z" fill="#f8f6ef"/><path d="M598.2,349.2c3.98-3.36,5.18-63.63,5.72-73.3.23-4.06,1.91-9.03,2.15-13.11.66-10.98,1.34-36.63-11.18-41.11-3.17-1.13-12.5-.54-9.04-5.25,28.59-7.34,26.61,32.56,25.72,50.78-.89,18.19-1.9,37.27-3.33,55.53-.5,6.41-1.86,31.09-8.37,33.04-2.14.64-13.1,1.23-12.32-2.5.72-3.45,8.89-2.61,10.64-4.08Z" fill="#f8f6ef"/><path d="M468.73,389.78c2.53,2.52-9.94,13.96-11.97,15.81-16.07,14.62-39.8,29.51-59.58,38.52-11.9,5.42-25.32,11.21-38.55,11.05l.64-3.36c33.26-7.57,66.65-25.88,92.54-47.88,2.31-1.96,14.71-16.34,16.92-14.13Z" fill="#f8f6ef"/><path d="M131.91,359.27c1.39-.96,4.95,3.22,5.99,4.34,7.4,7.99,14.29,17.89,21.77,26.19,3.83,4.25,18.85,16.93,19.11,21.33.09,1.57-.33,2.8-1.55,3.82-7.66,5.97-24.37-12.64-28.95-18.11-5.49-6.55-12.25-16.98-15.48-24.84-2.14-5.21-4.29-7.46-.88-12.72ZM175.5,411.56l-37.05-40.31c1.75,9.49,7.36,17.99,13.6,25.08,5.58,6.34,14.6,15.66,23.45,15.23Z" fill="#f8f6ef"/><path d="M417.5,216.49c-1.76,7.32-16.07,5.63-22.4,5.5-3.11-.06-5.79-1.14-8.62-1.19-15.63-.23-31.28.28-46.91.04-3.09-.56-3.7-2.48-1.1-4.35h79.03Z" fill="#f8f6ef"/><path d="M467.22,164.59c5.52,6.47,21.98,34,22.27,41.58.08,2.04.2,3.55-1.68,4.85-5.64-9.57-9.48-19.83-15.35-29.31-5.21-8.41-11.35-16.16-17.74-23.68l-.15-2.56c2.35-2.4,11.07,7.27,12.65,9.13Z" fill="#f8f6ef"/><path d="M559.22,347.27c-1.74-8.92,8.11-8.76,13.45-12.16,7.02-4.47,6.98-9.75,8.36-17.26,6.23,3.91,4.68,20.18.95,25.48-.7.99-5.27,3.94-5.87,3.94h-16.9ZM570.12,342.9c5.98-1.06,12.32-2.25,10.89-9.79-1.88.92-2.36,3.28-4.31,4.94-2.21,1.87-5.25,2.34-6.58,4.85Z" fill="#f8f6ef"/><path d="M541.77,356c-2.19,7.4-12.69,3.31-17.94,3.22-16.63-.29-33.12.06-49.65-1.05l.65-3.28,66.94,1.11Z" fill="#f8f6ef"/><path d="M406.59,132.59l-.55,2.17c-2.92.23-20.05-11.32-24.49-13.66-18.96-10-31.57-12.81-51.8-17.96-1.51-.38-3.4.01-3.82-2.17,29.7.35,56.14,16.69,80.66,31.62Z" fill="#f8f6ef"/><path d="M349.91,455.17c.49,2.79-.44,1.96-2.18,2.66-8.84,3.58-41.77,5.81-51.83,5.02-1.91-.15-3.57.22-4.84-1.71-.45-2.3,5.81-2.6,7.09-2.7,7.42-.58,15.42.51,22.87-.02,9.65-.69,19.17-3.3,28.89-3.25Z" fill="#f8f6ef"/><path d="M473.1,467.16c-1.02,3.15-1.9,17.91-5.1,18.59s-6.43-1.95-5.8-5.51l3.85.06,2.65-12.67c1.56-2.14,2.22-.67,4.4-.46Z" fill="#f8f6ef"/><path d="M55.51,358.22c.9,3.77,3.6,8.05,1.71,11.94-1.13,2.33-8.65,5.1-10.35,3.25-2.18-2.35,4.65-2.72,5.35-5.08.6-2.05-1.71-7.07.13-10.16l3.17.05Z" fill="#f8f6ef"/><path d="M514.29,106.71l.79,1.93,4.88-2.23c.7.92-2.75,6.56-3.23,7.08-2.83,3.08-7.68,6.48-12.02,6v-3.26c3.07.66,8.65-2.21,9.8-4.93,1.93-4.6-5.8,2.45-6.53,1.64-1.25-2.8,4.03-7.38,6.3-6.24Z" fill="#f8f6ef"/><path d="M307.41,545.62l4.84-9.95,3.86.14c-4.28-11.45,7.07-1.81,3.91,2.27-.87,1.12-3.56.76-4.94,1.61-2.14,1.31-3.09,7.11-7.68,5.93Z" fill="#f8f6ef"/><path d="M499.27,451.9l6.53,2.17c-.17-2.79-6.01-3.95-6.4-4.48-.62-.85-.8-3.75,1.45-3.1,2.97.85,9.25,5.4,8.16,9.11-1.98,4.99-11.68-1.7-9.74-3.69Z" fill="#f8f6ef"/><path d="M155.87,493.32c.79.76-4.5,16.99-9.8,15.25-.2-3.16,2.86-4.89,4.09-7.34.61-1.21,2.41-11.1,5.71-7.91Z" fill="#f8f6ef"/><path d="M88.37,124.84l-.09-3.17c7,2.97,7.94-6.99,12-2.7-2.05,5.64-6.1,8.77-11.91,5.87Z" fill="#f8f6ef"/><path d="M156.95,50.83c-.72,3.86,4.86,5.66,5.36,7.19,1.87,5.78-8.66,4.43-7.56-5.55.17-1.52.7-3.17,2.2-1.64Z" fill="#f8f6ef"/><path d="M155.87,499.85l3.16-.06,1.74-7.55c2.89.06,2.47,13.5-3.26,11.96-1.52-.41-1.93-2.9-1.65-4.35Z" fill="#f8f6ef"/><path d="M429.49,157.63c-5.08-.31-8.8-3.44-7.62-8.71,4.48-.42,7.81,4.63,7.62,8.71Z" fill="#f8f6ef"/><path d="M381.52,531.46c-2.75-1.02-3.67-4.09-5.5-5.95-.8-.81-6.92-2.29-4.29-4.94,2.37-2.4,12.16,6.64,9.79,10.89Z" fill="#f8f6ef"/><path d="M380.44,21.41v4.35s-5.45-1.1-5.45-1.1c.17,2.14.18,5.83-3.27,5.45-.53-6.87,1.66-9.86,8.72-8.71Z" fill="#f8f6ef"/><path d="M268.05,530.46c1.87,1.15,1.71,12.42-3.16,11.89-.51-2.12.97-4.26.99-6.11.02-2.12-2.78-8.82,2.17-5.78Z" fill="#f8f6ef"/><path d="M67.57,169.63c-.61,5.94-7.62,5.34-10.89,1.61-.46-2.47,1.08-1.5,2.7-1.62,2.7-.19,5.49.13,8.19,0Z" fill="#f8f6ef"/><path d="M461.1,478.06c1.78,1.78-3.55,5.63-4.91,6.53s-2.27,1.24-2.71-.55c-1.2-4.86,3.54-6.79,7.62-5.97Z" fill="#f8f6ef"/><path d="M257.25,15.96c.35-.59-.27-3.26,0-4.37,4.9-.86,7.71,3.04,7.62,7.63l-7.63-3.26c1.54,2.94,2.27,7.64-2.17,7.62.3-2.12-.52-5.01-.02-6.91.31-1.15,2.14-.62,2.19-.72Z" fill="#f8f6ef"/><path d="M304.12,12.69l-3.79,9.79c-3.59-3.13-1.27-10.74,3.79-9.79Z" fill="#f8f6ef"/><path d="M225.63,30.14l-1.05,2.74c-4.47,2.11-6.75-1.91-6.57-6.02l7.62,3.28Z" fill="#f8f6ef"/><path d="M385.72,524.77l-4.19.15v-7.62c4.71-.67,6.21,4.05,4.19,7.47Z" fill="#f8f6ef"/><path d="M541.78,165.26l-8.72,2.18c-1.05-5.71,8.07-8.23,8.72-2.18Z" fill="#f8f6ef"/><path d="M58.87,383.23l-2.19-7.62c.91-.94,5.97,2.53,6.48,3.93.33,1.58-3.11,4.55-4.29,3.69Z" fill="#f8f6ef"/><path d="M239.81,30.11c-.48.7-5.7,1-6.39-.15l-.15-4.19,5.47.52c1.21.55,1.46,3.24,1.07,3.82Z" fill="#f8f6ef"/><path d="M343.37,529.29l4.91-2.17c5.36,6.13-3.52,9.86-4.91,2.17Z" fill="#f8f6ef"/><path d="M142.83,486.73c-1.41-6.32,6.53-4.2,6.54-.52l-1.67,2.72-4.88-2.2Z" fill="#f8f6ef"/><path d="M495.98,452.99c-.58-1.76-8.72-1.47-7.61-3.8,1.8-3.78,9.79-1.68,7.61,3.8Z" fill="#f8f6ef"/><path d="M318.3,17.04c-1.96.41-7.01-1.39-6.53-3.79.76-3.79,8.13-.36,6.53,3.79Z" fill="#f8f6ef"/><path d="M317.21,18.14c.77,3.46-2.4,5.32-5.44,5.44v-5.45s5.44.01,5.44.01Z" fill="#f8f6ef"/><path d="M152.6,62.83c.27,3.9-3.96,3.41-6.53,3.25v-4.35s6.53,1.1,6.53,1.1Z" fill="#f8f6ef"/><path d="M553.76,207.78l-2.7,6.52c-3.32-2.85-1.9-7.35,2.7-6.52Z" fill="#f8f6ef"/><path d="M506.89,444.26c-.64.68-9.59-3.86-7.62-5.44,1.85-.9,10.31,2.59,7.62,5.44Z" fill="#f8f6ef"/><path d="M515.61,120.59c.16,4.3-4.6,3.27-7.62,3.26-.16-4.3,4.6-3.27,7.62-3.26Z" fill="#f8f6ef"/><path d="M149.33,492.23c.68.7-3.91,9.61-5.44,7.62-.68-3.47,1.7-7.36,5.44-7.62Z" fill="#f8f6ef"/><path d="M543.95,168.54c.17,4.27-5.6,4.32-7.61,1.61l7.61-1.61Z" fill="#f8f6ef"/><path d="M307.39,533.64l-2.7,6.52c-3.13-2.61-1.21-7.82,2.7-6.52Z" fill="#f8f6ef"/><path d="M260.51,539.08c-3.24,3.11-2.68-8.54,1.1-8.71l-1.1,8.71Z" fill="#f8f6ef"/><path d="M453.46,68.27c-4.56.83-1.69-8.04,1.09-8.72l-1.09,8.72Z" fill="#f8f6ef"/><polygon points="541.77 175.07 540.16 180.51 537.42 175.08 541.77 175.07" fill="#f8f6ef"/><path d="M486.17,84.62c.13,2.28.42,4.08-1.63,5.42-1.85-1.49-3.16-2.89-2.72-5.42h4.35Z" fill="#f8f6ef"/><path d="M546.11,359.25l-2.16-.54c-.16-3.47-.84-4.73,2.73-5.97,3.45,2.33-.37,3.91-.57,6.51Z" fill="#f8f6ef"/><path d="M385.88,18.13c-.63.63-6.47-1.5-6.53-3.25l4.76-1.04c1.69.38,2.36,3.69,1.76,4.29Z" fill="#f8f6ef"/><path d="M381.53,31.21c-.17-3.71,3.94-4.29,6.52-5.44.93,2.56-5.58,6.34-6.52,5.44Z" fill="#f8f6ef"/><path d="M366.26,21.41l-1.61,6.52c-2.6-1.43-1.82-7.25,1.61-6.52Z" fill="#f8f6ef"/><path d="M497.08,100.96v5.45s-1.61,0-1.61,0c-1.92-1.32-1.82-3.27-1.65-5.43h3.26Z" fill="#f8f6ef"/><path d="M76.84,407.24c2.24,0,2.24,6.15-1.07,5.42s-.22-5.42,1.07-5.42Z" fill="#f8f6ef"/><path d="M86.1,136.93c-1.26,1.29-6.53-2.38-4.34-5.44,1.73.13,6.14,3.6,4.34,5.44Z" fill="#f8f6ef"/><path d="M74.11,403.95v1.61c-1.45,1.87-2.91,3.17-5.44,2.74-1.06-2.23,4.67-5.16,5.44-4.35Z" fill="#f8f6ef"/><path d="M524.33,410.49v3.25c-5.58,2.49-6.88-4.88,0-3.25Z" fill="#f8f6ef"/><polygon points="432.76 50.85 432.76 53.01 427.31 53.01 427.32 49.75 432.76 50.85" fill="#f8f6ef"/><path d="M57.77,178.35c.79-.79,4.85.41,4.35,2.7-.89,4.03-6.45-.6-4.35-2.7Z" fill="#f8f6ef"/><path d="M462.19,490.04c-2.7.28-5.74.08-5.44-3.26,2.7-.28,5.74-.08,5.44,3.26Z" fill="#f8f6ef"/><path d="M340.1,532.54c-.79.79-4.85-.41-4.35-2.7.89-4.03,6.45.6,4.35,2.7Z" fill="#f8f6ef"/><path d="M46.87,216.48c-.79-.79.41-4.85,2.7-4.35,4.03.89-.6,6.45-2.7,4.35Z" fill="#f8f6ef"/><rect x="253.99" y="528.19" width="4.35" height="3.26" fill="#f8f6ef"/><path d="M458.92,63.92c.25,2.01.07,3.2-1.65,4.34h-1.61s0-4.35,0-4.35h3.26Z" fill="#f8f6ef"/><path d="M123.16,468.25v1.61s-4.34,3.83-4.34,3.83c-.44-2.61,1.4-5.66,4.34-5.44Z" fill="#f8f6ef"/><path d="M301.95,533.64v3.26c-2.01.25-3.2.07-4.35-1.65v-1.61s4.35,0,4.35,0Z" fill="#f8f6ef"/><path d="M417.51,47.56v-4.35c4.34.02,4.28,4.35,0,4.35Z" fill="#f8f6ef"/><path d="M307.39,15.96c.28,2.03,0,3.77-2.16,4.35v-4.35s2.16,0,2.16,0Z" fill="#f8f6ef"/><path d="M175.5,411.56c-8.86.43-17.87-8.89-23.45-15.23-6.24-7.09-11.85-15.59-13.6-25.08l37.05,40.31Z"/><path d="M570.12,342.9c1.33-2.51,4.37-2.98,6.58-4.85,1.95-1.66,2.43-4.02,4.31-4.94,1.43,7.54-4.91,8.74-10.89,9.79Z"/></svg>