<?xml version="1.0" encoding="UTF-8"?><svg id="Layer_1" xmlns="http://www.w3.org/2000/svg" viewBox="0 0 776.75 794.89"><path d="M467.13,49.23c-20.15-20.67-48.35-27.66-76.66-24.83-20.22,1.78-40.75,7.15-58.41,17.27-69.95,40.9-77.94,155.94-23.96,215.22,71.49,80.53,207.81,133.45,317.93,121.23,6.08-.98,16.44-1.83,13.25-9.58-3.24-7.04-22.49-22.39-31.08-33.66-8.38-10.11-15.32-21.2-22.29-32.29-5.85-9.5-12.06-19.18-15.11-29.96-2.41-9.47-1.62-16.46,4.46-18.54,10.58-2.13,22.66,12.46,29.15,21.92,13.83,20.2,25.94,41.7,44.15,58.36,17.86,16.78,41.84,27.83,65.97,32.79,15.42,4.73,59.34,3.41,62.22,20.79-.72,10.19-20.41,16.98-31.12,20-58.76,12.01-99.91,33.69-134.98,84.34-9.48,12.63-19.16,27.7-30.16,38.24-8.13,7.36-17.21,13.62-22.79,4.79-8.46-32.67,27.75-67.19,51.98-87.43,34.96-27.11,29.65-40.21-14.81-38.85-88.07,4.48-112.62,15.87-188.23,55.86-36.36,17.52-77.38,34.18-100.41,69.04-48.79,74.32-46.71,201.39,48.58,231,32.08,8.86,79.2,12.55,105.69-9.71,16.02-14.45,28.51-40.56,20.7-61.67-4.13-10.17-14.68-15.01-23.57-20.32-34.41-17.53-4.29-50.61,24.04-47.18,11.97,1,23.16,6.77,32.16,14.81,30.44,26.27,28.27,72.52,4.45,103.81-29.5,40.03-83.49,52.86-131.07,49.77-91.16-3-137.7-73.29-138.96-159.54-2.78-53.03,22.08-103.01,62.22-137.22,24.81-22.1,54.34-40.27,83.65-55.68,11.26-6.43,71.83-30.24,31.43-34.35-32.51-1.12-65.47,5.37-98.08,6.22-26.43,1.58-53.91-1.87-79.75,4.63-21.48,5.47-39.1,19.14-59.58,27.32-12.79,5.08-26.58,8.11-40.29,9.2-40.61,3.19-99.61-16.49-134.46-39.18-26.13-18.13-9.65-36.91,11.87-48.15,25.61-13.86,55.86-25.23,85.03-30.93,65.72-12.91,90.63,30.68,160.38,40.73,13.72,2.28,28.28,3.68,42.07,3.95,32.14.08,61.32-3.83,93.3-3.62,62.99-.34,5.79-20.55-18.76-33.73-43.06-21.96-86.67-48.61-112.12-90.89-36.96-64.81-36.33-157.72,19.85-211.61C328.78,8.49,380.84-6.71,427.96,2.79c49.53,11,101.19,41.74,111.94,94.2,11.67,48.36-22.29,101.38-72.13,70.39-11.47-8.54-22.86-25.81-11.44-33.54,10.42-5.75,26.11-3.12,34.48-12.73,14.66-21.58-7.9-55.65-23.43-71.65l-.24-.24Z"/></svg>