<?xml version="1.0" encoding="UTF-8"?><svg id="Layer_1" xmlns="http://www.w3.org/2000/svg" viewBox="0 0 136.25 40.68"><path d="M66.41,34.8c.24-1.09.45-4.63,1.43-5.15.34-.18.36-.08.61.12.77.6.97,3.8,1.3,4.92.1.35-.13.41.48.35,3.21-7.77,10.68-15.09,18.94-17.3,12.72-3.42,20.11,6.69,30.04,12.1,3.44,1.87,9.57,4.32,12.91,1.15,3.55-3.37-.39-9.47-4.13-4.89-.88.38-.3-1.85.03-2.36,1.44-2.21,5.29-1.68,6.91.21,2.63,3.07,1,7.8-2.38,9.55-5.75,2.98-12.69-.92-17.58-3.99-.85-.54-7.24-5.25-7.59-4.96,2.95,7.3-4.3,14.05-11.57,11.4-3.65-1.33-5.75-5.66-3.88-9.24,1.52-2.9,7.06-3.42,7.06.46-1.32-.53-2.13-1.48-3.68-.68-2.69,1.38-1.77,5.36.49,6.85,6.61,4.38,14.16-5.66,6.9-11.41s-17.49-1.4-23.6,3.93c-.49.42-3.72,3.57-3.83,3.83-.13.3.05.44.35.35.72-.21,1.66-1.01,2.56-1.27,2.03-.57,5.19-.63,6.53,1.29s.83,4.36-1.54,5c-1.27-6.83-8.7-2.83-11.46.88-.87,1.17-2.3,4.82-3.76,4.76-1.99-1.2-2.59-3.71-4.18-5.52-2.02-2.3-5.22-4.26-8.41-3.59-1.56.33-2.78,1.88-2.62,3.47-4.61-1.91-1.48-7.13,2.74-6.69l5.4,1.56c-5.71-6.93-17.38-14.04-26.28-8.99-7.99,4.54-3.49,15.45,4.29,13.1,2.6-.79,4.44-3.73,3.11-6.31-.6-1.16-1.68-1.72-2.99-1.45-.86.18-1.29.98-2.09,1.14.13-3.69,4.91-3.74,6.84-1.2,2.72,3.59.1,8.48-3.83,9.8-7.32,2.46-14.02-4.21-11.39-11.46-.37-.09-.55.07-.84.23-1.21.66-2.66,2.01-3.87,2.83-5.43,3.68-14.87,10.11-21.29,5.29-4.84-3.63-2.37-12.43,4.13-10.32,1.36.44,2.67,2.5,1.38,3.63-.86-1.8-2.99-2.39-4.44-.84-2.11,2.24-.29,5.9,2.35,6.74,9.39,3.02,21.86-12.28,31.26-14.56s20.24,4.24,25.65,11.83c1.06,1.49,1.92,3.79,2.86,5.03.21.27.25.49.68.4Z"/><path d="M68.32,24.3c-.51.09-.57-.23-.72-.6-.43-1.11-.52-3.15-.83-4.42-1.28-5.2-3.99-10.58-1.61-15.91.36-.82,2.06-3.45,3-3.38.78.06,2.05,2.15,2.41,2.85,3.45,6.89-1.75,14.42-2.25,21.45Z"/><path d="M79.83,17.38c-.69-5.57-5.24-1.17-6.81,1.45-.57.96-2.16,5.3-2.69,5.44-.31.08-.5.07-.69-.2-.37-.53,1.58-7.04,2-8.04.87-2.04,3.17-5.76,5.49-6.23,5.61-1.14,7.75,5.46,2.7,7.58Z"/><path d="M66.41,24.3l-1.08-.24c-.87-2.68-3.83-8.98-6.98-9.3-2.67-.27-1.69,2.47-2.37,2.61-6.03-3.21-.7-10.58,4.66-6.54,3.58,2.69,5.31,9.2,5.77,13.46Z"/><path d="M71.86,25.79c.49.72.44,1.66-.54,1.84s-5.58.14-6.69-.02c-1.61-.23-1.33-1.85.24-2.11.87-.14,6.54-.11,6.99.28Z"/></svg>