<?xml version="1.0" encoding="UTF-8"?><svg id="Layer_1" xmlns="http://www.w3.org/2000/svg" viewBox="0 0 343.44 55.01"><path d="M53.35,29.72l-.3-.43c-7.08.63-17.89-.16-21.76,7.04-.52,3.12,2.03,3.11,4.27,2.3,2.69,10.38-17.48,6.86-9.8-3.99,3.37-4.32,7.27-4.56,11.95-6.06.4-.13.63.1.52-.54-19.17,0-16.82,15.77-31.75,2.6-1.6-.71-8.02-1.15-6.14-4.13.7-1.11,5-1.71,6.51-2.37,14.83-12.06,11.94,2.04,31.14,2.94-3.97-1.95-9.44-2.23-12.23-6.36-3.84-4.93-.73-11.73,5.82-10.62,2.72.46,5.76,3.93,3.99,6.65-.22.15-4.01-2.42-4.31.86,2.51,8.38,15.43,7.22,22.57,8.04-14.34-3.59-14.4-26.88,2.26-25.41,5.87.69,9.93,8.17,5.55,12.7-1.87,1.94-6.46,2.55-6.81-.67-.31-2.84,2.82-2.03,4.05-3.28,2.13-2.17-.62-5.19-3.02-5.64-14.3-.45-11.51,22.02,9.84,21.83h68.9c3.18.37,3.09,4.46,0,4.8l-70.58-.02c-19.2.35-22.47,21.87-8.17,21.83,2.08-.29,4.18-2.41,3.69-4.61-.58-2.6-5.15-.6-4.5-4.6,4.32-7.1,13.38,4.97,4.86,10.87-17.24,8.4-23.39-19.51-6.56-23.72h0Z"/><path d="M289.43,25.32c5.63.42,24.81-.1,22.73-8.81-1.66-2.11-4.06,1.52-4.47-1.17-.3-1.97,1.18-3.7,2.79-4.62,5.95-3.37,11.72,3.36,8.04,9.24-3,5.25-8.66,4.61-13.01,7.03,18.77-.2,16.01-15.19,31.28-2.83,1.67.71,6.53,1.08,6.65,3.22s-5.32,2.57-6.81,3.25c-14.06,12.88-12.3-2.33-31.11-2.67-.09.55.04.47.47.6,16.78,2.2,17.72,19.8,4.4,15.29-1.16-.72-3.49-3.37-2.49-4.74.93-1.27,3.26,1,4.44-.84.94-8.84-16.06-8.81-22.19-8.99l-.24.36c15.31,3.08,13.03,28.66-3.83,24.84-5.24-1.48-8.33-8.81-3.85-12.72,3.18-2.77,8.03-.58,6.21,2.62-.96,1.69-3.51.39-4.31,2.41-.86,2.15,1.68,4.63,3.76,4.92,14.63-.13,10.04-22.1-8.65-21.83l-70.1.02c-2.47-.28-3.38-3.46-.97-4.58l68.43-.21c34.16-1.2,15.62-33.34,7.3-18.12-.11,3.34,3.72,2.18,4.54,3.62,1.27,2.22-1.24,4.1-3.39,3.88-6.9-.72-6.68-12.63,1.68-14.28,16.83-2.73,17.98,22.39,2.7,25.14v-.03h0Z"/><rect x="113.27" y="25.21" width="119.6" height="4.75"/></svg>