<?xml version="1.0" encoding="UTF-8"?><svg id="Layer_1" xmlns="http://www.w3.org/2000/svg" viewBox="0 0 167.07 24.72"><path d="M31.2,12.85c-.41-1.08-1.19-2.1-1.38-3.28-.45-2.85.6-5.53,3.78-5.55-4.64,6.76,3.64,14.89,9.83,16.94-4.56-3.39-7-9.73-4.17-15.01,2.57-4.78,9.46-5.59,12.52-.82,2.16,3.37-.16,9.19-4.45,7.77-3.14-1.04-2.24-5.52.27-4.08.98.56,1.05,3.91,2.75,1.01s-1.25-6.58-4.39-6.53c-2.79.04-5.61,2.75-6.07,5.43-1.34,7.91,5.47,13.18,12.76,13.68h61.61c7.35-.38,15.13-6.89,12.45-14.8-1.88-5.54-9.83-5.71-10.61-.06-.15,1.07.61,3.05,1.79,3.37.49.13.58-1.06.84-1.48,1.41-2.29,4.63.22,2.01,2.72-2.84,2.7-6.38-.7-6.38-3.95,0-7.12,10.84-8.92,13.88-1.16,2.13,5.45-.81,10.91-5.24,14.16,4.73-1.57,9.81-5.74,11.27-10.61.76-2.53.61-4.4-.97-6.57,2.88-.13,4.14,2.53,3.81,5.11-.15,1.14-1.01,2.33-1.06,3.48,6.42-6.13,15.5-16.04,25.38-11.43,10.98,5.14,4.31,22.53-6.38,18.53-4.12-1.54-6.16-7.83-1.83-9.82,3.25-1.5,6.33,1.78,3.95,3.21-1.58.95-2.73-1.73-3.68-.09-1.58,2.72,2.57,5.39,5.24,4.98,6.93-1.07,8.02-11.35,1.83-14.73-8.52-4.65-17.36,5.39-23.29,10.3-2.36,1.95-4.83,3.81-7.3,5.62.97.33,1.94-.48,2.87-.72,2.53-.66,7.76-1.43,9.4,1.14,1.28,2.01.77,4.23-1.61,4.95.77-6.17-7.12-4.21-10.72-3.28-6.13,1.59-8.8,2.68-15.42,3.03-20.33,1.07-40.97-.29-61.35.26-5.8.14-10.57-1.75-15.93-3.23-3.89-1.07-11.15-2.91-11.14,3.22-3.87-1.92-1.78-6.2,1.94-6.65,1.01-.12,2.07.02,3.09-.02l5.87,1.31c-1.98-1.61-4.12-3.05-6.1-4.66C25,9.77,15.8-.5,7.48,2.72c-6.59,2.55-6.65,12.88-.19,14.98,2.95.96,7.12-.7,6.41-4.24-.48-2.41-2.5,1.07-4.24-.67-1.96-1.96,1.87-4.26,4.57-2.77,4.1,2.26,1.66,8.62-2.48,9.88C.78,23.17-5.21,5.89,6.04,1.04,15.88-3.19,24.63,7.06,31.2,12.85Z"/></svg>